<?xml version="1.0" standalone="no"?><!DOCTYPE svg PUBLIC "-//W3C//DTD SVG 1.1//EN" "http://www.w3.org/Graphics/SVG/1.1/DTD/svg11.dtd"><svg t="1760335983279" class="icon" viewBox="0 0 1024 1024" version="1.1" xmlns="http://www.w3.org/2000/svg" p-id="2998" xmlns:xlink="http://www.w3.org/1999/xlink" width="256" height="256"><path d="M512.5 952.8c-9.1 0-17.8-3.7-24.1-10.2L110.8 552c-12.9-13.3-12.5-34.5 0.8-47.4 13.3-12.9 34.5-12.5 47.4 0.8l353.5 365.7L866 505.4c12.9-13.3 34.1-13.7 47.4-0.8 13.3 12.9 13.7 34.1 0.8 47.4L536.6 942.6c-6.3 6.5-15 10.2-24.1 10.2z" fill="#ffffff" p-id="2999"></path><path d="M512.5 545.2c-9.1 0-17.8-3.7-24.1-10.2L110.8 144.4c-12.9-13.3-12.5-34.5 0.8-47.4 13.3-12.9 34.5-12.5 47.4 0.8l353.5 365.7L866 97.8c12.9-13.3 34.1-13.7 47.4-0.8 13.3 12.9 13.7 34.1 0.8 47.4L536.6 535c-6.3 6.6-15 10.2-24.1 10.2z" fill="#ffffff" p-id="3000"></path></svg>