<svg t="1762129369079" class="icon" viewBox="0 0 1024 1024" version="1.1" xmlns="http://www.w3.org/2000/svg" p-id="6043" width="256" height="256"><path d="M197.76 155.072h184.064L481.92 55.168c16.64-16.64 43.648-16.64 60.352 0l99.904 99.904h184.064c23.552 0 42.688 19.136 42.688 42.688v184.064l99.904 99.904c16.64 16.64 16.64 43.712 0 60.352l-99.904 100.096v184.064a42.688 42.688 0 0 1-42.688 42.688h-184.064l-99.904 99.904a42.688 42.688 0 0 1-60.352 0l-100.096-99.904H197.76a42.688 42.688 0 0 1-42.688-42.688v-184.064L55.168 542.08a42.688 42.688 0 0 1 0-60.352l99.904-99.904V197.76c0-23.552 19.136-42.688 42.688-42.688z m231.872 72.896a42.688 42.688 0 0 1-30.08 12.48H240.384v159.04c0 11.328-4.48 22.144-12.48 30.208L145.664 511.936l82.304 82.432a42.688 42.688 0 0 1 12.48 30.08v159.104h159.04c11.328 0 22.144 4.48 30.144 12.48l82.432 82.304 82.24-82.304a42.688 42.688 0 0 1 30.208-12.48h159.04V624.512c0-11.328 4.48-22.144 12.48-30.144l82.304-82.432-82.304-82.24a42.688 42.688 0 0 1-12.48-30.208V240.448H624.512a42.688 42.688 0 0 1-30.208-12.48L512.064 145.664 429.632 227.968z" p-id="6044" fill="#f4ea2a"></path><path d="M643.776 674.56q-51.264 37.248-110.72 42.624-53.568 4.8-103.296-16.64-47.104-20.416-76.992-57.984Q320 601.344 320 554.688C320 531.072 339.072 512 362.688 512q85.76 0 123.008-24.832 47.616-31.808 47.616-124.48A42.688 42.688 0 0 1 576 320q50.56 0 91.072 45.696 33.856 38.08 47.68 93.312 14.656 58.688-0.064 112.896-17.344 63.616-70.912 102.592z m-50.176-69.12q59.072-42.88 38.4-125.76-6.72-26.688-19.968-46.08-17.28 83.392-79.04 124.544-41.6 27.712-109.568 35.84 15.744 17.6 40.192 28.16 67.136 29.056 129.92-16.64z" p-id="6045" fill="#f4ea2a"></path></svg>