<svg t="1763096068672" class="icon" viewBox="0 0 1024 1024" version="1.1" xmlns="http://www.w3.org/2000/svg" p-id="2399" width="256" height="256"><path d="M561.28 143.36c-28.629333-14.933333-67.413333-15.146667-96.298667-0.256-110.634667 57.173333-210.986667 122.666667-298.922666 195.328-13.610667 11.221333-23.253333 27.562667-23.082667 46.762667 0.170667 19.157333 9.984 35.242667 23.509333 46.293333 87.210667 71.296 187.648 136.874667 296.234667 193.578667 28.629333 14.933333 67.413333 15.146667 96.298667 0.256 110.634667-57.130667 210.986667-122.666667 298.922666-195.328 13.610667-11.221333 23.253333-27.562667 23.082667-46.762667-0.170667-19.157333-9.984-35.242667-23.509333-46.293333-87.210667-71.296-187.648-136.874667-296.234667-193.578667z m-66.944 56.618667c10.24-5.290667 27.008-5.248 37.333333 0.128 103.637333 54.101333 199.125333 116.352 281.898667 183.552-83.242667 68.309333-178.474667 130.346667-283.904 184.789333-10.24 5.290667-27.008 5.248-37.333333-0.128-103.637333-54.101333-199.125333-116.352-281.898667-183.552 83.242667-68.309333 178.474667-130.346667 283.904-184.789333z" fill="#34d399" p-id="2400"></path><path d="M904.405333 541.781333a32 32 0 0 1-10.197333 44.117334l-260.565333 162.645333c-35.370667 22.101333-79.232 32.298667-121.642667 32.298667s-86.272-10.197333-121.642667-32.256l-257.706666-160.853334a32 32 0 0 1 33.877333-54.314666l257.706667 160.853333c23.210667 14.506667 54.741333 22.613333 87.765333 22.570667 32.981333 0 64.512-8.106667 87.722667-22.570667l260.608-162.688a32 32 0 0 1 44.074666 10.24z" fill="#34d399" p-id="2401"></path><path d="M904.405333 701.994667a32 32 0 0 1-10.197333 44.074666L668.586667 887.04c-45.098667 28.16-101.546667 41.429333-156.586667 41.429333-54.954667 0-111.36-13.226667-156.544-41.386666l-222.805333-139.093334a32 32 0 1 1 33.92-54.314666l222.805333 139.093333c32.981333 20.608 77.098667 31.701333 122.666667 31.701333s89.685333-11.093333 122.666666-31.701333l225.664-140.928a32 32 0 0 1 44.074667 10.197333z" fill="#34d399" p-id="2402"></path></svg>